<?xml version="1.0" standalone="no"?>
<!DOCTYPE svg PUBLIC "-//W3C//DTD SVG 20010904//EN"
 "http://www.w3.org/TR/2001/REC-SVG-20010904/DTD/svg10.dtd">
<svg version="1.0" xmlns="http://www.w3.org/2000/svg"
 width="78.000000pt" height="78.000000pt" viewBox="0 0 78.000000 78.000000"
 preserveAspectRatio="xMidYMid meet">
<metadata>
Created by potrace 1.14, written by Peter Selinger 2001-2017
</metadata>
<g transform="translate(0.000000,78.000000) scale(0.100000,-0.100000)"
fill="#000000" stroke="none">
<path d="M307 674 c-51 -51 -65 -70 -56 -80 11 -13 39 -8 39 7 0 5 24 32 52
60 l53 52 60 -65 c33 -36 66 -63 73 -61 14 5 17 43 2 43 -5 0 -35 25 -66 55
-32 30 -65 55 -73 55 -9 0 -46 -30 -84 -66z"/>
<path d="M156 519 c-7 -11 -37 -44 -65 -74 -28 -29 -51 -57 -51 -63 0 -5 27
-34 60 -65 33 -30 60 -60 60 -65 0 -19 30 -21 39 -4 8 15 -2 28 -54 72 -35 30
-64 57 -64 60 -1 10 85 96 102 103 21 8 23 43 2 51 -8 3 -21 -4 -29 -15z"/>
<path d="M597 525 c-16 -16 -13 -20 49 -79 l67 -62 -67 -61 c-37 -34 -65 -67
-61 -72 9 -15 45 -14 45 2 0 7 23 33 51 57 76 67 76 70 19 130 -28 29 -59 64
-68 78 -17 23 -19 23 -35 7z"/>
<path d="M225 454 c-8 -9 -15 -19 -15 -24 0 -17 19 -20 34 -4 13 13 16 13 16
1 0 -8 -11 -22 -25 -31 -28 -18 -32 -47 -10 -66 12 -10 18 -10 29 -1 10 8 16
9 21 1 3 -6 11 -8 16 -5 12 8 12 122 -1 130 -22 14 -51 13 -65 -1z m35 -86 c0
-16 -3 -19 -11 -11 -6 6 -8 16 -5 22 11 17 16 13 16 -11z"/>
<path d="M336 454 c-17 -16 -22 -90 -8 -110 21 -31 82 -19 82 16 0 25 -18 26
-36 3 -12 -16 -13 -12 -13 32 0 44 1 48 13 33 7 -10 18 -18 25 -18 19 0 12 39
-8 50 -27 14 -37 13 -55 -6z"/>
<path d="M430 399 c0 -70 4 -81 26 -72 10 3 14 22 14 59 0 30 5 54 10 54 6 0
10 -24 10 -54 0 -30 4 -57 8 -60 15 -9 30 9 30 39 0 61 2 75 12 75 6 0 10 -24
10 -54 0 -37 4 -56 14 -59 17 -7 23 14 21 76 -2 57 -14 73 -43 58 -10 -6 -22
-7 -26 -3 -4 3 -25 7 -47 7 l-39 0 0 -66z"/>
<path d="M249 174 c-12 -15 -11 -18 5 -28 11 -6 43 -35 71 -63 29 -29 58 -53
65 -53 15 0 144 118 148 136 9 36 -26 18 -81 -42 l-62 -67 -62 67 c-34 36 -64
66 -66 66 -3 0 -11 -7 -18 -16z"/>
</g>
</svg>
